<svg width="100" height="23" viewBox="0 0 100 23" fill="none" xmlns="http://www.w3.org/2000/svg">
<rect x="61" width="39" height="23" rx="3" fill="#4A90E2"/>
<path d="M1.19 6.29789C1.54467 6.21389 1.92734 6.15789 2.338 6.12989C2.74867 6.10189 3.15467 6.08789 3.556 6.08789C3.98534 6.08789 4.41934 6.12989 4.858 6.21389C5.306 6.29789 5.712 6.45189 6.076 6.67589C6.44 6.89989 6.734 7.20789 6.958 7.59989C7.19134 7.99189 7.308 8.49122 7.308 9.09789C7.308 9.69522 7.20067 10.1992 6.986 10.6099C6.77134 11.0206 6.48667 11.3566 6.132 11.6179C5.77734 11.8699 5.37134 12.0519 4.914 12.1639C4.45667 12.2759 3.98534 12.3319 3.5 12.3319C3.45334 12.3319 3.374 12.3319 3.262 12.3319C3.15934 12.3319 3.04734 12.3319 2.926 12.3319C2.814 12.3226 2.702 12.3132 2.59 12.3039C2.478 12.2946 2.39867 12.2852 2.352 12.2759V15.9999H1.19V6.29789ZM3.584 7.09589C3.34134 7.09589 3.108 7.10056 2.884 7.10989C2.66 7.11922 2.48267 7.14256 2.352 7.17989V11.2399C2.39867 11.2586 2.47334 11.2726 2.576 11.2819C2.67867 11.2819 2.786 11.2866 2.898 11.2959C3.01 11.2959 3.11734 11.2959 3.22 11.2959C3.32267 11.2959 3.39734 11.2959 3.444 11.2959C3.76134 11.2959 4.074 11.2679 4.382 11.2119C4.69934 11.1466 4.984 11.0346 5.236 10.8759C5.488 10.7172 5.68867 10.4932 5.838 10.2039C5.99667 9.91456 6.076 9.54589 6.076 9.09789C6.076 8.71522 6.00134 8.39789 5.852 8.14589C5.712 7.88456 5.52067 7.67922 5.278 7.52989C5.04467 7.37122 4.77867 7.25922 4.48 7.19389C4.18134 7.12856 3.88267 7.09589 3.584 7.09589Z" fill="white"/>
<path d="M11.7101 10.0779C11.4301 9.98456 11.1641 9.93789 10.9121 9.93789C10.5108 9.93789 10.1935 10.0499 9.96013 10.2739C9.72679 10.4886 9.58213 10.7639 9.52613 11.0999V15.9999H8.40613V8.99989H9.19013L9.40013 9.85389H9.45613C9.63346 9.53656 9.84346 9.29389 10.0861 9.12589C10.3381 8.94856 10.6555 8.85989 11.0381 8.85989C11.3088 8.85989 11.6121 8.90656 11.9481 8.99989L11.7101 10.0779Z" fill="white"/>
<path d="M18.2739 15.4399C17.9939 15.6639 17.6393 15.8412 17.2099 15.9719C16.7899 16.1026 16.3419 16.1679 15.8659 16.1679C15.3339 16.1679 14.8719 16.0839 14.4799 15.9159C14.0879 15.7386 13.7659 15.4912 13.5139 15.1739C13.2619 14.8472 13.0753 14.4599 12.9539 14.0119C12.8326 13.5639 12.7719 13.0599 12.7719 12.4999C12.7719 11.3052 13.0379 10.3952 13.5699 9.76989C14.1019 9.14456 14.8626 8.83189 15.8519 8.83189C16.1693 8.83189 16.4866 8.86922 16.8039 8.94389C17.1213 9.00922 17.4059 9.13989 17.6579 9.33589C17.9099 9.53189 18.1153 9.81189 18.2739 10.1759C18.4326 10.5306 18.5119 11.0019 18.5119 11.5899C18.5119 11.8979 18.4839 12.2386 18.4279 12.6119H13.9339C13.9339 13.0226 13.9759 13.3866 14.0599 13.7039C14.1439 14.0212 14.2746 14.2919 14.4519 14.5159C14.6293 14.7306 14.8579 14.8986 15.1379 15.0199C15.4273 15.1319 15.7773 15.1879 16.1879 15.1879C16.5053 15.1879 16.8226 15.1319 17.1399 15.0199C17.4573 14.9079 17.6953 14.7772 17.8539 14.6279L18.2739 15.4399ZM15.8659 9.81189C15.3153 9.81189 14.8719 9.95656 14.5359 10.2459C14.2093 10.5352 14.0133 11.0299 13.9479 11.7299H17.4199C17.4199 11.0206 17.2846 10.5259 17.0139 10.2459C16.7433 9.95656 16.3606 9.81189 15.8659 9.81189Z" fill="white"/>
<path d="M24.3753 15.9999V12.0379C24.3753 11.6646 24.3566 11.3426 24.3193 11.0719C24.2913 10.7919 24.2306 10.5586 24.1373 10.3719C24.044 10.1852 23.9086 10.0452 23.7313 9.95189C23.5633 9.85856 23.3393 9.81189 23.0593 9.81189C22.63 9.81189 22.2706 9.94256 21.9813 10.2039C21.7013 10.4652 21.5053 10.7919 21.3933 11.1839V15.9999H20.2733V8.99989H21.0573L21.2673 9.85389H21.3233C21.5753 9.55522 21.8646 9.31256 22.1913 9.12589C22.5273 8.92989 22.9613 8.83189 23.4933 8.83189C23.9413 8.83189 24.3053 8.92056 24.5853 9.09789C24.8746 9.26589 25.0986 9.56456 25.2573 9.99389C25.472 9.62989 25.766 9.34522 26.1393 9.13989C26.522 8.93456 26.9513 8.83189 27.4273 8.83189C27.8193 8.83189 28.1506 8.87856 28.4213 8.97189C28.692 9.05589 28.916 9.20989 29.0933 9.43389C29.2706 9.65789 29.3966 9.96122 29.4713 10.3439C29.5553 10.7266 29.5973 11.2119 29.5973 11.7999V15.9999H28.4773V11.7859C28.4773 11.4499 28.4586 11.1606 28.4213 10.9179C28.3933 10.6659 28.328 10.4606 28.2253 10.3019C28.132 10.1339 27.9966 10.0126 27.8193 9.93789C27.6513 9.85389 27.4273 9.81189 27.1473 9.81189C26.6806 9.81189 26.3166 9.94256 26.0553 10.2039C25.794 10.4652 25.6073 10.8386 25.4953 11.3239V15.9999H24.3753Z" fill="white"/>
<path d="M31.8726 8.99989H32.9926V15.9999H31.8726V8.99989ZM31.6346 6.87189C31.6346 6.65722 31.7046 6.47522 31.8446 6.32589C31.994 6.16722 32.1806 6.08789 32.4046 6.08789C32.6286 6.08789 32.82 6.16722 32.9786 6.32589C33.1373 6.47522 33.2166 6.65722 33.2166 6.87189C33.2166 7.08656 33.1373 7.26389 32.9786 7.40389C32.82 7.54389 32.6286 7.61389 32.4046 7.61389C32.1806 7.61389 31.994 7.54389 31.8446 7.40389C31.7046 7.26389 31.6346 7.08656 31.6346 6.87189Z" fill="white"/>
<path d="M36.3887 8.99989V12.9899C36.3887 13.3539 36.4074 13.6759 36.4447 13.9559C36.4914 14.2266 36.5661 14.4552 36.6687 14.6419C36.7714 14.8192 36.9114 14.9546 37.0887 15.0479C37.2661 15.1412 37.4901 15.1879 37.7607 15.1879C38.0127 15.1879 38.2367 15.1506 38.4327 15.0759C38.6287 14.9919 38.8014 14.8799 38.9507 14.7399C39.1094 14.5999 39.2447 14.4412 39.3567 14.2639C39.4781 14.0772 39.5761 13.8812 39.6507 13.6759V8.99989H40.7707V14.0119C40.7707 14.3479 40.7801 14.6979 40.7987 15.0619C40.8267 15.4166 40.8687 15.7292 40.9247 15.9999H40.1547L39.8747 14.8939H39.8047C39.5901 15.2579 39.3007 15.5612 38.9367 15.8039C38.5727 16.0466 38.1107 16.1679 37.5507 16.1679C37.1774 16.1679 36.8461 16.1212 36.5567 16.0279C36.2767 15.9439 36.0387 15.7899 35.8427 15.5659C35.6561 15.3419 35.5114 15.0432 35.4087 14.6699C35.3154 14.2872 35.2687 13.8066 35.2687 13.2279V8.99989H36.3887Z" fill="white"/>
<path d="M47.0296 15.9999V12.0379C47.0296 11.6646 47.0109 11.3426 46.9736 11.0719C46.9456 10.7919 46.8849 10.5586 46.7916 10.3719C46.6983 10.1852 46.5629 10.0452 46.3856 9.95189C46.2176 9.85856 45.9936 9.81189 45.7136 9.81189C45.2843 9.81189 44.9249 9.94256 44.6356 10.2039C44.3556 10.4652 44.1596 10.7919 44.0476 11.1839V15.9999H42.9276V8.99989H43.7116L43.9216 9.85389H43.9776C44.2296 9.55522 44.5189 9.31256 44.8456 9.12589C45.1816 8.92989 45.6156 8.83189 46.1476 8.83189C46.5956 8.83189 46.9596 8.92056 47.2396 9.09789C47.5289 9.26589 47.7529 9.56456 47.9116 9.99389C48.1263 9.62989 48.4203 9.34522 48.7936 9.13989C49.1763 8.93456 49.6056 8.83189 50.0816 8.83189C50.4736 8.83189 50.8049 8.87856 51.0756 8.97189C51.3463 9.05589 51.5703 9.20989 51.7476 9.43389C51.9249 9.65789 52.0509 9.96122 52.1256 10.3439C52.2096 10.7266 52.2516 11.2119 52.2516 11.7999V15.9999H51.1316V11.7859C51.1316 11.4499 51.1129 11.1606 51.0756 10.9179C51.0476 10.6659 50.9823 10.4606 50.8796 10.3019C50.7863 10.1339 50.6509 10.0126 50.4736 9.93789C50.3056 9.85389 50.0816 9.81189 49.8016 9.81189C49.3349 9.81189 48.9709 9.94256 48.7096 10.2039C48.4483 10.4652 48.2616 10.8386 48.1496 11.3239V15.9999H47.0296Z" fill="white"/>
<path d="M75.462 15.594C75.182 15.8086 74.8273 15.958 74.398 16.042C73.9687 16.126 73.5113 16.168 73.026 16.168C72.438 16.168 71.8873 16.07 71.374 15.874C70.8607 15.6686 70.4127 15.3606 70.03 14.95C69.6473 14.5393 69.344 14.0166 69.12 13.382C68.896 12.738 68.784 11.9773 68.784 11.1C68.784 10.1853 68.9053 9.41065 69.148 8.77598C69.4 8.13198 69.7267 7.60932 70.128 7.20798C70.5387 6.79732 70.996 6.49865 71.5 6.31198C72.004 6.12532 72.5173 6.03198 73.04 6.03198C73.6 6.03198 74.0573 6.06465 74.412 6.12998C74.7667 6.18598 75.07 6.26532 75.322 6.36798L75.042 7.38998C74.594 7.17532 73.9547 7.06798 73.124 7.06798C72.7413 7.06798 72.3633 7.13798 71.99 7.27798C71.6167 7.41798 71.2807 7.64665 70.982 7.96398C70.6927 8.28132 70.4593 8.69665 70.282 9.20998C70.1047 9.72332 70.016 10.3533 70.016 11.1C70.016 11.772 70.1 12.36 70.268 12.864C70.436 13.368 70.6647 13.788 70.954 14.124C71.2527 14.46 71.598 14.712 71.99 14.88C72.3913 15.048 72.8253 15.132 73.292 15.132C73.712 15.132 74.076 15.09 74.384 15.006C74.7013 14.922 74.9673 14.8146 75.182 14.684L75.462 15.594Z" fill="white"/>
<path d="M81.4536 13.284H77.8416L76.8616 16H75.7136L79.4236 6.04598H79.9556L83.6796 16H82.4616L81.4536 13.284ZM78.2196 12.276H81.1036L80.0116 9.29398L79.6616 7.80998H79.6476L79.2976 9.32198L78.2196 12.276Z" fill="white"/>
<path d="M84.981 6.29798C85.3357 6.23265 85.7417 6.18132 86.199 6.14398C86.6657 6.10665 87.0903 6.08798 87.473 6.08798C87.9023 6.08798 88.3083 6.13465 88.691 6.22798C89.083 6.32132 89.4237 6.47532 89.713 6.68998C90.0117 6.90465 90.2497 7.18465 90.427 7.52998C90.6043 7.87532 90.693 8.29532 90.693 8.78998C90.693 9.55532 90.483 10.176 90.063 10.652C89.643 11.128 89.111 11.4453 88.467 11.604L89.139 12.122L91.575 16H90.217L87.515 11.772L86.143 11.562V16H84.981V6.29798ZM87.501 7.09598C87.3797 7.09598 87.2537 7.09598 87.123 7.09598C86.9923 7.09598 86.8663 7.10065 86.745 7.10998C86.6237 7.11932 86.507 7.12865 86.395 7.13798C86.2923 7.14732 86.2083 7.16132 86.143 7.17998V10.792H87.235C87.879 10.792 88.411 10.6333 88.831 10.316C89.251 9.99865 89.461 9.50398 89.461 8.83198C89.461 8.32798 89.2883 7.91265 88.943 7.58598C88.5977 7.25932 88.117 7.09598 87.501 7.09598Z" fill="white"/>
</svg>
